<?xml version="1.0" encoding="utf-8"?>
<!-- Generator: Adobe Illustrator 16.0.0, SVG Export Plug-In . SVG Version: 6.00 Build 0)  -->
<!DOCTYPE svg PUBLIC "-//W3C//DTD SVG 1.1//EN" "http://www.w3.org/Graphics/SVG/1.1/DTD/svg11.dtd">
<svg version="1.1" id="Layer_1" xmlns="http://www.w3.org/2000/svg" xmlns:xlink="http://www.w3.org/1999/xlink" x="0px" y="0px"
	 width="361.93px" height="361.931px" viewBox="0 0 361.93 361.931" enable-background="new 0 0 361.93 361.931"
	 xml:space="preserve">
<path d="M357.168,234.302v-58.099C357.168,79.052,278.115,0,180.965,0S4.762,79.052,4.762,176.203v58.099
	C1.905,241.445,0,249.065,0,257.161v28.573c0,27.621,19.525,50.479,45.718,56.194c5.238,11.906,17.144,20.002,30.478,20.002
	c18.573,0,33.336-14.764,33.336-33.336V214.301c0-18.573-14.763-33.336-33.336-33.336c-13.811,0-25.716,8.572-30.478,20.002
	c-8.097,1.428-15.239,5.238-21.906,9.524v-34.288c0-86.673,70.48-157.154,157.153-157.154S338.119,89.53,338.119,176.203v34.764
	c-6.191-4.762-13.811-8.096-21.906-9.524c-4.763-11.905-16.668-20.478-30.479-20.478c-18.573,0-33.336,14.763-33.336,33.336v114.294
	c0,18.572,14.763,33.336,33.336,33.336c13.811,0,25.716-8.572,30.479-20.002c26.192-5.238,45.717-28.573,45.717-56.194v-28.573
	C361.93,249.065,360.026,241.445,357.168,234.302z M61.909,214.301c0-8.096,6.19-14.287,14.286-14.287
	c8.097,0,14.287,6.191,14.287,14.287v114.294c0,8.096-6.19,14.287-14.287,14.287c-8.096,0-14.286-6.191-14.286-14.287V214.301z
	 M42.861,221.92v99.055c-13.811-5.714-23.812-19.524-23.812-35.24v-28.573C19.049,241.445,29.05,227.635,42.861,221.92z
	 M300.021,328.594c0,8.096-6.19,14.287-14.286,14.287s-14.287-6.191-14.287-14.287V214.301c0-8.096,6.191-14.287,14.287-14.287
	s14.286,6.191,14.286,14.287V328.594z M342.881,285.734c0,15.716-10.001,29.526-23.812,35.24V221.92
	c13.811,5.715,23.812,19.525,23.812,35.241V285.734z"/>
</svg>
